<svg width="1260" height="695" fill="none" xmlns="http://www.w3.org/2000/svg"><g clip-path="url(#a)" fill="#009FE3"><path d="M370.807 58.945c4.159-1.886 8.873 1.33 8.541 5.879l-3.55 47.695-4.88 65.388-8.652 116.688-9.927 134.547-10.371 139.87-4.77 64.389h-.055c-.832.278-1.609.555-2.441.888-46.143 16.361-91.509 34.33-136.155 53.741-4.547 1.941-9.04 3.937-13.587 5.934-2.94 1.276-6.378.055-7.765-2.773l-22.96-45.977-54.961-110.033h-.056l-52.132-104.32-29.56-59.232L.61 337.854a5.972 5.972 0 0 1 1.83-7.542c42.094-30.504 85.243-59.565 129.5-87.018 2.995-1.885 6.988-.721 8.541 2.441l43.813 116.022c.943 2.274 4.271 1.72 4.437-.721l15.806-213.189a5.971 5.971 0 0 1 3.05-5.213c54.962-31.39 105.43-57.013 163.22-83.578v-.111Zm198.879 44.479c4.048-1.276 8.152 1.941 7.82 6.156l-9.373 126.116-9.872 133.438-10.316 138.761-4.381 59.509c-.166 2.551-1.997 4.714-4.492 5.324A2159.293 2159.293 0 0 0 379.79 618.76c-4.049 1.331-8.153-1.83-7.82-6.101l4.104-55.293 10.371-139.76 9.928-134.325 8.651-116.189c.167-2.274 1.609-4.27 3.716-5.102a2108.302 2108.302 0 0 1 161.001-58.622l-.055.056Zm427.102-90.178c4.322-.444 7.762 3.771 6.322 7.93L794.913 521.262c-.721 2.219-2.718 3.771-5.047 3.993-23.238 2.441-163.441 27.508-201.265 35.994-3.882.887-7.543-2.274-7.21-6.267l4.104-55.682 10.26-138.651 9.872-133.215 9.928-133.992c.166-2.495 1.885-4.603 4.326-5.324 49.082-14.475 97.055-26.565 146.248-37.214 3.771-.832 7.321 2.052 7.321 5.88l-11.425 136.32c-.166 6.045 8.319 7.654 10.371 1.941l53.963-152.737c.499-2.385 2.385-4.215 4.714-4.659 60.729-11.924 103.267-17.636 165.715-24.291v-.111ZM1256.62 1.21c-.89-.22-1.83-.61-2.72-.61-29.95 0-62.06.61-97.83 1.387-35.78.777-104.44 5.88-105.54 6.101-1.45 4.215-218.129 504.688-218.129 504.688-1.331 4.048 1.83 8.208 6.1 7.875 33.498-2.385 125.618-9.706 165.379-10.537 2.5 0 4.72-1.664 5.55-4.049 0 0 12.81-37.768 18.02-53.075 1.22-3.661 4.66-6.101 8.54-6.157 18.2-.055 10.54-.388 27.9 0 3.66.111 6.32 3.384 5.77 6.988l-7.6 48.861c-.55 3.549 2.11 6.766 5.77 6.877 44.03 1.276 116.02 2.163 159.39 5.99a5.974 5.974 0 0 0 6.49-5.602l2.94-54.018 7.04-135.656 6.82-130.442L1260 6.868c.11-2.496-1.28-4.714-3.38-5.713v.056Zm-160.4 304.533c-.44 2.773-2.82 4.658-5.6 4.603-9.81-.333-19.46-.333-29.28-.499-3.72-.111-6.32-3.716-5.1-7.21l38.99-113.416c2.16-6.212 7.93-10.26 14.47-9.927 1.11 0 2.16.11 3.33.166 3.27.166 5.66 3.05 5.16 6.322l-21.97 120.016v-.055ZM578.835 588.978c13.311-3.05 21.297-5.102 34.496-7.93 27.231-5.824 36.881.499 33.886 23.459-2.717 21.131-16.859 36.049-42.427 41.706-4.325.943-6.488 1.442-10.87 2.441-1.885 14.974-2.884 22.516-4.825 37.823-8.762 2.052-9.373 2.163-18.191 4.271 3.439-42.261 2.773-61.727 7.876-101.825l.055.055Zm26.732 41.207c12.645-2.773 18.524-8.707 20.132-21.352 1.553-11.924-2.218-14.808-15.862-11.868-3.826.832-5.712 1.22-9.539 2.107-1.664 13.2-2.551 19.799-4.215 33.276 3.827-.887 5.713-1.275 9.539-2.107l-.055-.056Zm56.238-32.167a2245.145 2245.145 0 0 1 18.745-3.55l.277 6.267c.167 0 .278 0 .5-.111 5.379-5.213 12.201-9.539 20.575-10.981 3.051-.554 5.99-.61 7.709-.332-2.052 6.988-3.05 10.482-5.102 17.525-2.773-.056-5.324-.055-8.652.555-6.378 1.164-12.09 5.046-15.529 8.818-2.717 20.686-4.104 31.224-6.877 52.521a1433.573 1433.573 0 0 0-21.241 4.159c3.993-30.614 5.934-45.588 9.761-74.871h-.166Zm63.279-38.101c8.707-1.442 13.089-2.108 21.74-3.439-.776 5.99-1.22 9.04-1.996 15.085-8.652 1.331-13.033 2.052-21.741 3.494.832-6.1 1.221-9.095 1.997-15.14Zm-3.161 27.286a1349.042 1349.042 0 0 1 20.797-3.327c-3.882 29.061-5.878 43.924-9.927 74.316-8.264 1.331-12.423 2.052-20.742 3.494 4.048-30.392 5.989-45.311 9.872-74.427v-.056Zm33.441-5.269c8.43-1.276 12.645-1.886 21.075-3.05 1.498 11.591 2.163 17.414 3.605 29.227 1.331 11.924 1.608 26.676 1.608 26.676.278 0 .389 0 .61-.11 0 0 4.715-15.696 9.318-28.174a2841.97 2841.97 0 0 1 11.591-31.224 1292.663 1292.663 0 0 1 20.52-2.496c-11.924 29.838-17.913 45.145-29.782 76.313-11.369 1.498-17.082 2.274-28.562 3.993-3.771-29.172-5.768-43.37-9.983-71.211v.056Zm83.969-37.602c8.485-.943 12.7-1.387 21.186-2.218-.832 5.934-1.221 8.929-2.053 14.974-8.429.832-12.7 1.275-21.13 2.218.832-6.045 1.22-9.04 2.052-14.974h-.055Zm-3.272 27.064c8.097-.887 12.145-1.331 20.243-2.107-3.994 28.839-5.99 43.592-10.15 73.707-8.041.832-12.09 1.275-20.187 2.218 4.159-30.17 6.156-44.923 10.149-73.762l-.055-.056Zm62.388 66.331c-2.994 1.109-8.762 2.496-14.863 2.995-11.425.998-17.193-2.329-14.697-20.354 4.77-34.219 7.043-50.913 11.591-83.468 8.097-.721 12.146-1.053 20.243-1.663-4.492 32.222-6.821 48.694-11.535 82.469-.777 5.657.887 6.378 3.937 6.156 2.274-.166 4.326-.61 5.435-.998 0 5.934-.055 8.873-.111 14.863Zm51.305-77.311c24.957-1.331 26.787 13.255 25.511 21.962-2.107 14.863-6.1 19.577-24.513 20.52-5.158.277-14.531-.111-19.799-1.22-.056.388-.111.61-.167.998-1.941 14.586 1.054 19.245 11.924 18.635 7.709-.444 14.531-2.219 22.739-4.936.499 5.49.721 8.208 1.165 13.754-3.883 1.941-15.196 5.879-29.117 6.655-24.957 1.387-29.727-10.482-26.066-36.603 3.272-23.405 11.425-38.434 38.267-39.821l.056.056Zm-2.274 30.004c6.821-.333 7.931-3.106 8.596-7.598.832-5.713-1.83-9.151-8.652-8.763-6.988.388-11.979 3.937-14.142 15.03 3.494.942 9.539 1.608 14.253 1.331h-.055Zm9.872-38.989c-5.546.277-8.375.444-13.921.721 5.38-8.763 7.266-11.147 12.645-19.744 6.988-.333 9.872-.721 16.86-.998-6.766 8.652-8.763 11.258-15.529 20.077l-.055-.056Zm33.722 102.158c7.654-1.442 12.816-2.551 18.856-4.548 6.6-2.163 10.48-5.324 11.87-15.196.5-3.438.78-5.158 1.22-8.541h-.28c-4.16 2.884-11.64 7.487-21.57 7.709-13.479.278-20.855-6.433-17.084-32.666 4.714-32.943 16.474-41.65 36.434-41.928 9.76-.166 22.02 1.997 30.45 5.38-4.05 27.564-6.1 41.651-10.31 70.434-2.94 20.243-13.98 27.342-27.4 30.614-5.55 1.331-14.754 3.051-21.576 3.994-.221-6.157-.388-9.207-.61-15.252Zm19.356-36.826c5.21-.11 10.43-2.939 14.03-6.1 2.11-14.364 3.11-21.463 5.16-35.495-2.27-.998-4.99-1.497-9.37-1.442-7.93.111-12.98 2.94-15.98 23.571-2.49 17.193.61 19.633 6.16 19.522v-.056Zm64.06-83.966c8.15.111 12.25.166 20.41.333-.89 5.934-1.34 8.873-2.22 14.863-8.16-.166-12.26-.277-20.41-.333.88-5.989 1.33-8.929 2.16-14.863h.06Zm-3.5 26.843c7.82.111 11.7.166 19.52.332-4.21 28.618-6.37 43.204-10.81 73.097-7.77-.166-11.65-.222-19.47-.333 4.38-29.893 6.55-44.479 10.76-73.096Zm29.78 37.712c3.61-24.402 12.31-38.6 37.66-37.38 25.51 1.22 29.01 16.028 25.29 40.431-3.77 25.012-12.37 37.324-37.82 36.049-25.29-1.22-28.9-14.143-25.18-39.155l.05.055Zm43.48 1.609c2.39-15.862.84-23.294-8.54-23.737-9.2-.444-12.98 6.71-15.3 22.572-2.56 16.971-.61 22.129 8.54 22.572 9.15.444 12.75-4.381 15.3-21.407Zm29.67 19.966c6.38 2.274 14.7 5.49 24.63 6.378 7.26.665 10.04-.888 10.81-6.212.67-4.437-.44-6.655-7.54-9.484-1.33-.554-2.05-.776-3.38-1.331-15.92-6.267-22.35-11.48-20.3-25.012 2.44-16.028 13.42-19.522 28.12-18.247 10.54.888 22.02 4.326 26.95 6.545-1.94 5.324-2.94 7.986-4.88 13.31-5.88-1.886-14.64-4.437-21.74-5.102-6.38-.555-8.87 1.275-9.43 4.991-.5 3.272.39 5.546 7.82 8.541 1.33.555 2.05.776 3.39 1.331 17.13 6.822 22.18 12.922 20.07 26.732-2.66 17.137-14.36 21.186-30 19.799-13.87-1.275-24.57-5.379-29.56-7.265 2.05-5.99 3.05-8.929 5.1-14.863l-.06-.111Z"/></g><defs><clipPath id="a"><path fill="#fff" transform="translate(0 .601)" d="M0 0h1260v693.918H0z"/></clipPath></defs></svg>